
<!-- ZEROED the plane for security, you're welcome to enter your own creds into submission -->
<?xml version="1.0" encoding="utf-8"?>
<!DOCTYPE svg PUBLIC "-//W3C//DTD SVG 1.0//EN" "http://www.w3.org/TR/2001/REC-SVG-20010904/DTD/svg10.dtd">
<svg xmlns="http://www.w3.org/2000/svg" xml:space="preserve" xmlns:xlink="http://www.w3.org/1999/xlink" width="147" height="147" viewBox="0 147 147">
<desc></desc>
<rect width="147" height="147" fill="#ffffff" cx="0 cy="0" />
<defs>
<rect id="p" width="3" height="3" />
</defs>
<g fill="#000000">
<use x="0" y="0" xlink:href="#p" />
<use x="0" y="0" xlink:href="#p" />
<use x="0" y="0" xlink:href="#p" />
<use x="0" y="0" xlink:href="#p" />
<use x="0" y="0" xlink:href="#p" />
<use x="0" y="0" xlink:href="#p" />
<use x="0" y="0" xlink:href="#p" />
<use x="0" y="0" xlink:href="#p" />
<use x="0" y="0" xlink:href="#p" />
<use x="0" y="0" xlink:href="#p" />
<use x="0" y="0" xlink:href="#p" />
<use x="0" y="0" xlink:href="#p" />
<use x="0" y="0" xlink:href="#p" />
<use x="0" y="0" xlink:href="#p" />
<use x="0" y="0" xlink:href="#p" />
<use x="0" y="0" xlink:href="#p" />
<use x="0" y="0" xlink:href="#p" />
<use x="0" y="0" xlink:href="#p" />
<use x="0" y="0" xlink:href="#p" />
<use x="0" y="0" xlink:href="#p" />
<use x="0" y="0" xlink:href="#p" />
<use x="0" y="0" xlink:href="#p" />
<use x="0" y="0" xlink:href="#p" />
<use x="0" y="0" xlink:href="#p" />
<use x="0" y="0" xlink:href="#p" />
<use x="0" y="0" xlink:href="#p" />
<use x="0" y="0" xlink:href="#p" />
<use x="0" y="0" xlink:href="#p" />
<use x="0" y="0" xlink:href="#p" />
<use x="0" y="0" xlink:href="#p" />
<use x="0" y="0" xlink:href="#p" />
<use x="0" y="0" xlink:href="#p" />
<use x="0" y="0" xlink:href="#p" />
<use x="0" y="0" xlink:href="#p" />
<use x="0" y="0" xlink:href="#p" />
<use x="0" y="0" xlink:href="#p" />
<use x="0" y="0" xlink:href="#p" />
<use x="0" y="0" xlink:href="#p" />
<use x="0" y="0" xlink:href="#p" />
<use x="0" y="0" xlink:href="#p" />
<use x="0" y="0" xlink:href="#p" />
<use x="0" y="0" xlink:href="#p" />
<use x="0" y="0" xlink:href="#p" />
<use x="0" y="0" xlink:href="#p" />
<use x="0" y="0" xlink:href="#p" />
<use x="0" y="0" xlink:href="#p" />
<use x="0" y="0" xlink:href="#p" />
<use x="0" y="0" xlink:href="#p" />
<use x="0" y="0" xlink:href="#p" />
<use x="0" y="0" xlink:href="#p" />
<use x="0" y="0" xlink:href="#p" />
<use x="0" y="0" xlink:href="#p" />
<use x="0" y="0" xlink:href="#p" />
<use x="0" y="0" xlink:href="#p" />
<use x="0" y="0" xlink:href="#p" />
<use x="0" y="0" xlink:href="#p" />
<use x="0" y="0" xlink:href="#p" />
<use x="0" y="0" xlink:href="#p" />
<use x="0" y="0" xlink:href="#p" />
<use x="0" y="0" xlink:href="#p" />
<use x="0" y="0" xlink:href="#p" />
<use x="0" y="0" xlink:href="#p" />
<use x="0" y="0" xlink:href="#p" />
<use x="0" y="0" xlink:href="#p" />
<use x="0" y="0" xlink:href="#p" />
<use x="0" y="0" xlink:href="#p" />
<use x="0" y="0" xlink:href="#p" />
<use x="0" y="0" xlink:href="#p" />
<use x="0" y="0" xlink:href="#p" />
<use x="0" y="0" xlink:href="#p" />
<use x="0" y="0" xlink:href="#p" />
<use x="0" y="0" xlink:href="#p" />
<use x="0" y="0" xlink:href="#p" />
<use x="0" y="0" xlink:href="#p" />
<use x="0" y="0" xlink:href="#p" />
<use x="0" y="0" xlink:href="#p" />
<use x="0" y="0" xlink:href="#p" />
<use x="0" y="0" xlink:href="#p" />
<use x="0" y="0" xlink:href="#p" />
<use x="0" y="0" xlink:href="#p" />
<use x="0" y="0" xlink:href="#p" />
<use x="0" y="0" xlink:href="#p" />
<use x="0" y="0" xlink:href="#p" />
<use x="0" y="0" xlink:href="#p" />
<use x="0" y="0" xlink:href="#p" />
<use x="0" y="0" xlink:href="#p" />
<use x="0" y="0" xlink:href="#p" />
<use x="0" y="0" xlink:href="#p" />
<use x="0" y="0" xlink:href="#p" />
<use x="0" y="0" xlink:href="#p" />
<use x="0" y="0" xlink:href="#p" />
<use x="0" y="0" xlink:href="#p" />
<use x="0" y="0" xlink:href="#p" />
<use x="0" y="0" xlink:href="#p" />
<use x="0" y="0" xlink:href="#p" />
<use x="0" y="0" xlink:href="#p" />
<use x="0" y="0" xlink:href="#p" />
<use x="0" y="0" xlink:href="#p" />
<use x="0" y="0" xlink:href="#p" />
<use x="0" y="0" xlink:href="#p" />
<use x="0" y="0" xlink:href="#p" />
<use x="0" y="0" xlink:href="#p" />
<use x="0" y="0" xlink:href="#p" />
<use x="0" y="0" xlink:href="#p" />
<use x="0" y="0" xlink:href="#p" />
<use x="0" y="0" xlink:href="#p" />
<use x="0" y="0" xlink:href="#p" />
<use x="0" y="0" xlink:href="#p" />
<use x="0" y="0" xlink:href="#p" />
<use x="0" y="0" xlink:href="#p" />
<use x="0" y="0" xlink:href="#p" />
<use x="0" y="0" xlink:href="#p" />
<use x="0" y="0" xlink:href="#p" />
<use x="0" y="0" xlink:href="#p" />
<use x="0" y="0" xlink:href="#p" />
<use x="0" y="0" xlink:href="#p" />
<use x="0" y="0" xlink:href="#p" />
<use x="0" y="0" xlink:href="#p" />
<use x="0" y="0" xlink:href="#p" />
<use x="0" y="0" xlink:href="#p" />
<use x="0" y="0" xlink:href="#p" />
<use x="0" y="0" xlink:href="#p" />
<use x="0" y="0" xlink:href="#p" />
<use x="0" y="0" xlink:href="#p" />
<use x="0" y="0" xlink:href="#p" />
<use x="0" y="0" xlink:href="#p" />
<use x="0" y="0" xlink:href="#p" />
<use x="0" y="0" xlink:href="#p" />
<use x="0" y="0" xlink:href="#p" />
<use x="0" y="0" xlink:href="#p" />
<use x="0" y="0" xlink:href="#p" />
<use x="0" y="0" xlink:href="#p" />
<use x="0" y="0" xlink:href="#p" />
<use x="0" y="0" xlink:href="#p" />
<use x="0" y="0" xlink:href="#p" />
<use x="0" y="0" xlink:href="#p" />
<use x="0" y="0" xlink:href="#p" />
<use x="0" y="0" xlink:href="#p" />
<use x="0" y="0" xlink:href="#p" />
<use x="0" y="0" xlink:href="#p" />
<use x="0" y="0" xlink:href="#p" />
<use x="0" y="0" xlink:href="#p" />
<use x="0" y="0" xlink:href="#p" />
<use x="0" y="0" xlink:href="#p" />
<use x="0" y="0" xlink:href="#p" />
<use x="0" y="0" xlink:href="#p" />
<use x="0" y="0" xlink:href="#p" />
<use x="0" y="0" xlink:href="#p" />
<use x="0" y="0" xlink:href="#p" />
<use x="0" y="0" xlink:href="#p" />
<use x="0" y="0" xlink:href="#p" />
<use x="0" y="0" xlink:href="#p" />
<use x="0" y="0" xlink:href="#p" />
<use x="0" y="0" xlink:href="#p" />
<use x="0" y="0" xlink:href="#p" />
<use x="0" y="0" xlink:href="#p" />
<use x="0" y="0" xlink:href="#p" />
<use x="0" y="0" xlink:href="#p" />
<use x="0" y="0" xlink:href="#p" />
<use x="0" y="0" xlink:href="#p" />
<use x="0" y="0" xlink:href="#p" />
<use x="0" y="0" xlink:href="#p" />
<use x="0" y="0" xlink:href="#p" />
<use x="0" y="0" xlink:href="#p" />
<use x="0" y="0" xlink:href="#p" />
<use x="0" y="0" xlink:href="#p" />
<use x="0" y="0" xlink:href="#p" />
<use x="0" y="0" xlink:href="#p" />
<use x="0" y="0" xlink:href="#p" />
<use x="0" y="0" xlink:href="#p" />
<use x="0" y="0" xlink:href="#p" />
<use x="0" y="0" xlink:href="#p" />
<use x="0" y="0" xlink:href="#p" />
<use x="0" y="0" xlink:href="#p" />
<use x="0" y="0" xlink:href="#p" />
<use x="0" y="0" xlink:href="#p" />
<use x="0" y="0" xlink:href="#p" />
<use x="0" y="0" xlink:href="#p" />
<use x="0" y="0" xlink:href="#p" />
<use x="0" y="0" xlink:href="#p" />
<use x="0" y="0" xlink:href="#p" />
<use x="0" y="0" xlink:href="#p" />
<use x="0" y="0" xlink:href="#p" />
<use x="0" y="0" xlink:href="#p" />
<use x="0" y="0" xlink:href="#p" />
<use x="0" y="0" xlink:href="#p" />
<use x="0" y="0" xlink:href="#p" />
<use x="0" y="0" xlink:href="#p" />
<use x="0" y="0" xlink:href="#p" />
<use x="0" y="0" xlink:href="#p" />
<use x="0" y="0" xlink:href="#p" />
<use x="0" y="0" xlink:href="#p" />
<use x="0" y="0" xlink:href="#p" />
<use x="0" y="0" xlink:href="#p" />
<use x="0" y="0" xlink:href="#p" />
<use x="0" y="0" xlink:href="#p" />
<use x="0" y="0" xlink:href="#p" />
<use x="0" y="0" xlink:href="#p" />
<use x="0" y="0" xlink:href="#p" />
<use x="0" y="0" xlink:href="#p" />
<use x="0" y="0" xlink:href="#p" />
<use x="0" y="0" xlink:href="#p" />
<use x="0" y="0" xlink:href="#p" />
<use x="0" y="0" xlink:href="#p" />
<use x="0" y="0" xlink:href="#p" />
<use x="0" y="0" xlink:href="#p" />
<use x="0" y="0" xlink:href="#p" />
<use x="0" y="0" xlink:href="#p" />
<use x="0" y="0" xlink:href="#p" />
<use x="0" y="0" xlink:href="#p" />
<use x="0" y="0" xlink:href="#p" />
<use x="0" y="0" xlink:href="#p" />
<use x="0" y="0" xlink:href="#p" />
<use x="0" y="0" xlink:href="#p" />
<use x="0" y="0" xlink:href="#p" />
<use x="0" y="0" xlink:href="#p" />
<use x="0" y="0" xlink:href="#p" />
<use x="0" y="0" xlink:href="#p" />
<use x="0" y="0" xlink:href="#p" />
<use x="0" y="0" xlink:href="#p" />
<use x="0" y="0" xlink:href="#p" />
<use x="0" y="0" xlink:href="#p" />
<use x="0" y="0" xlink:href="#p" />
<use x="0" y="0" xlink:href="#p" />
<use x="0" y="0" xlink:href="#p" />
<use x="0" y="0" xlink:href="#p" />
<use x="0" y="0" xlink:href="#p" />
<use x="0" y="0" xlink:href="#p" />
<use x="0" y="0" xlink:href="#p" />
<use x="0" y="0" xlink:href="#p" />
<use x="0" y="0" xlink:href="#p" />
<use x="0" y="0" xlink:href="#p" />
<use x="0" y="0" xlink:href="#p" />
<use x="0" y="0" xlink:href="#p" />
<use x="0" y="0" xlink:href="#p" />
<use x="0" y="0" xlink:href="#p" />
<use x="0" y="0" xlink:href="#p" />
<use x="0" y="0" xlink:href="#p" />
<use x="0" y="0" xlink:href="#p" />
<use x="0" y="0" xlink:href="#p" />
<use x="0" y="0" xlink:href="#p" />
<use x="0" y="0" xlink:href="#p" />
<use x="0" y="0" xlink:href="#p" />
<use x="0" y="0" xlink:href="#p" />
<use x="0" y="0" xlink:href="#p" />
<use x="0" y="0" xlink:href="#p" />
<use x="0" y="0" xlink:href="#p" />
<use x="0" y="0" xlink:href="#p" />
<use x="0" y="0" xlink:href="#p" />
<use x="0" y="0" xlink:href="#p" />
<use x="0" y="0" xlink:href="#p" />
<use x="0" y="0" xlink:href="#p" />
<use x="0" y="0" xlink:href="#p" />
<use x="0" y="0" xlink:href="#p" />
<use x="0" y="0" xlink:href="#p" />
<use x="0" y="0" xlink:href="#p" />
<use x="0" y="0" xlink:href="#p" />
<use x="0" y="0" xlink:href="#p" />
<use x="0" y="0" xlink:href="#p" />
<use x="0" y="0" xlink:href="#p" />
<use x="0" y="0" xlink:href="#p" />
<use x="0" y="0" xlink:href="#p" />
<use x="0" y="0" xlink:href="#p" />
<use x="0" y="0" xlink:href="#p" />
<use x="0" y="0" xlink:href="#p" />
<use x="0" y="0" xlink:href="#p" />
<use x="0" y="0" xlink:href="#p" />
<use x="0" y="0" xlink:href="#p" />
<use x="0" y="0" xlink:href="#p" />
<use x="0" y="0" xlink:href="#p" />
<use x="0" y="0" xlink:href="#p" />
<use x="0" y="0" xlink:href="#p" />
<use x="0" y="0" xlink:href="#p" />
<use x="0" y="0" xlink:href="#p" />
<use x="0" y="0" xlink:href="#p" />
<use x="0" y="0" xlink:href="#p" />
<use x="0" y="0" xlink:href="#p" />
<use x="0" y="0" xlink:href="#p" />
<use x="0" y="0" xlink:href="#p" />
<use x="0" y="0" xlink:href="#p" />
<use x="0" y="0" xlink:href="#p" />
<use x="0" y="0" xlink:href="#p" />
<use x="0" y="0" xlink:href="#p" />
<use x="0" y="0" xlink:href="#p" />
<use x="0" y="0" xlink:href="#p" />
<use x="0" y="0" xlink:href="#p" />
<use x="0" y="0" xlink:href="#p" />
<use x="0" y="0" xlink:href="#p" />
<use x="0" y="0" xlink:href="#p" />
<use x="0" y="0" xlink:href="#p" />
<use x="0" y="0" xlink:href="#p" />
<use x="0" y="0" xlink:href="#p" />
<use x="0" y="0" xlink:href="#p" />
<use x="0" y="0" xlink:href="#p" />
<use x="0" y="0" xlink:href="#p" />
<use x="0" y="0" xlink:href="#p" />
<use x="0" y="0" xlink:href="#p" />
<use x="0" y="0" xlink:href="#p" />
<use x="0" y="0" xlink:href="#p" />
<use x="0" y="0" xlink:href="#p" />
<use x="0" y="0" xlink:href="#p" />
<use x="0" y="0" xlink:href="#p" />
<use x="0" y="0" xlink:href="#p" />
<use x="0" y="0" xlink:href="#p" />
<use x="0" y="0" xlink:href="#p" />
<use x="0" y="0" xlink:href="#p" />
<use x="0" y="0" xlink:href="#p" />
<use x="0" y="0" xlink:href="#p" />
<use x="0" y="0" xlink:href="#p" />
<use x="0" y="0" xlink:href="#p" />
<use x="0" y="0" xlink:href="#p" />
<use x="0" y="0" xlink:href="#p" />
<use x="0" y="0" xlink:href="#p" />
<use x="0" y="0" xlink:href="#p" />
<use x="0" y="0" xlink:href="#p" />
<use x="0" y="0" xlink:href="#p" />
<use x="0" y="0" xlink:href="#p" />
<use x="0" y="0" xlink:href="#p" />
<use x="0" y="0" xlink:href="#p" />
<use x="0" y="0" xlink:href="#p" />
<use x="0" y="0" xlink:href="#p" />
<use x="0" y="0" xlink:href="#p" />
<use x="0" y="0" xlink:href="#p" />
<use x="0" y="0" xlink:href="#p" />
<use x="0" y="0" xlink:href="#p" />
<use x="0" y="0" xlink:href="#p" />
<use x="0" y="0" xlink:href="#p" />
<use x="0" y="0" xlink:href="#p" />
<use x="0" y="0" xlink:href="#p" />
<use x="0" y="0" xlink:href="#p" />
<use x="0" y="0" xlink:href="#p" />
<use x="0" y="0" xlink:href="#p" />
<use x="0" y="0" xlink:href="#p" />
<use x="0" y="0" xlink:href="#p" />
<use x="0" y="0" xlink:href="#p" />
<use x="0" y="0" xlink:href="#p" />
<use x="0" y="0" xlink:href="#p" />
<use x="0" y="0" xlink:href="#p" />
<use x="0" y="0" xlink:href="#p" />
<use x="0" y="0" xlink:href="#p" />
<use x="0" y="0" xlink:href="#p" />
<use x="0" y="0" xlink:href="#p" />
<use x="0" y="0" xlink:href="#p" />
<use x="0" y="0" xlink:href="#p" />
<use x="0" y="0" xlink:href="#p" />
<use x="0" y="0" xlink:href="#p" />
<use x="0" y="0" xlink:href="#p" />
<use x="0" y="0" xlink:href="#p" />
<use x="0" y="0" xlink:href="#p" />
<use x="0" y="0" xlink:href="#p" />
<use x="0" y="0" xlink:href="#p" />
<use x="0" y="0" xlink:href="#p" />
<use x="0" y="0" xlink:href="#p" />
<use x="0" y="0" xlink:href="#p" />
<use x="0" y="0" xlink:href="#p" />
<use x="0" y="0" xlink:href="#p" />
<use x="0" y="0" xlink:href="#p" />
<use x="0" y="0" xlink:href="#p" />
<use x="0" y="0" xlink:href="#p" />
<use x="0" y="0" xlink:href="#p" />
<use x="0" y="0" xlink:href="#p" />
<use x="0" y="0" xlink:href="#p" />
<use x="0" y="0" xlink:href="#p" />
<use x="0" y="0" xlink:href="#p" />
<use x="0" y="0" xlink:href="#p" />
<use x="0" y="0" xlink:href="#p" />
<use x="0" y="0" xlink:href="#p" />
<use x="0" y="0" xlink:href="#p" />
<use x="0" y="0" xlink:href="#p" />
<use x="0" y="0" xlink:href="#p" />
<use x="0" y="0" xlink:href="#p" />
<use x="0" y="0" xlink:href="#p" />
<use x="0" y="0" xlink:href="#p" />
<use x="0" y="0" xlink:href="#p" />
<use x="0" y="0" xlink:href="#p" />
<use x="0" y="0" xlink:href="#p" />
<use x="0" y="0" xlink:href="#p" />
<use x="0" y="0" xlink:href="#p" />
<use x="0" y="0" xlink:href="#p" />
<use x="0" y="0" xlink:href="#p" />
<use x="0" y="0" xlink:href="#p" />
<use x="0" y="0" xlink:href="#p" />
<use x="0" y="0" xlink:href="#p" />
<use x="0" y="0" xlink:href="#p" />
<use x="0" y="0" xlink:href="#p" />
<use x="0" y="0" xlink:href="#p" />
<use x="0" y="0" xlink:href="#p" />
<use x="0" y="0" xlink:href="#p" />
<use x="0" y="0" xlink:href="#p" />
<use x="0" y="0" xlink:href="#p" />
<use x="0" y="0" xlink:href="#p" />
<use x="0" y="0" xlink:href="#p" />
<use x="0" y="0" xlink:href="#p" />
<use x="0" y="0" xlink:href="#p" />
<use x="0" y="0" xlink:href="#p" />
<use x="0" y="0" xlink:href="#p" />
<use x="0" y="0" xlink:href="#p" />
<use x="0" y="0" xlink:href="#p" />
<use x="0" y="0" xlink:href="#p" />
<use x="0" y="0" xlink:href="#p" />
<use x="0" y="0" xlink:href="#p" />
<use x="0" y="0" xlink:href="#p" />
<use x="0" y="0" xlink:href="#p" />
<use x="0" y="0" xlink:href="#p" />
<use x="0" y="0" xlink:href="#p" />
<use x="0" y="0" xlink:href="#p" />
<use x="0" y="0" xlink:href="#p" />
<use x="0" y="0" xlink:href="#p" />
<use x="0" y="0" xlink:href="#p" />
<use x="0" y="0" xlink:href="#p" />
<use x="0" y="0" xlink:href="#p" />
<use x="0" y="0" xlink:href="#p" />
<use x="0" y="0" xlink:href="#p" />
<use x="0" y="0" xlink:href="#p" />
<use x="0" y="0" xlink:href="#p" />
<use x="0" y="0" xlink:href="#p" />
<use x="0" y="0" xlink:href="#p" />
<use x="0" y="0" xlink:href="#p" />
<use x="0" y="0" xlink:href="#p" />
<use x="0" y="0" xlink:href="#p" />
<use x="0" y="0" xlink:href="#p" />
<use x="0" y="0" xlink:href="#p" />
<use x="0" y="0" xlink:href="#p" />
<use x="0" y="0" xlink:href="#p" />
<use x="0" y="0" xlink:href="#p" />
<use x="0" y="0" xlink:href="#p" />
<use x="0" y="0" xlink:href="#p" />
<use x="0" y="0" xlink:href="#p" />
<use x="0" y="0" xlink:href="#p" />
<use x="0" y="0" xlink:href="#p" />
<use x="0" y="0" xlink:href="#p" />
<use x="0" y="0" xlink:href="#p" />
<use x="0" y="0" xlink:href="#p" />
<use x="0" y="0" xlink:href="#p" />
<use x="0" y="0" xlink:href="#p" />
<use x="0" y="0" xlink:href="#p" />
<use x="0" y="0" xlink:href="#p" />
<use x="0" y="0" xlink:href="#p" />
<use x="0" y="0" xlink:href="#p" />
<use x="0" y="0" xlink:href="#p" />
<use x="0" y="0" xlink:href="#p" />
<use x="0" y="0" xlink:href="#p" />
<use x="0" y="0" xlink:href="#p" />
<use x="0" y="0" xlink:href="#p" />
<use x="0" y="0" xlink:href="#p" />
<use x="0" y="0" xlink:href="#p" />
<use x="0" y="0" xlink:href="#p" />
<use x="0" y="0" xlink:href="#p" />
<use x="0" y="0" xlink:href="#p" />
<use x="0" y="0" xlink:href="#p" />
<use x="0" y="0" xlink:href="#p" />
<use x="0" y="0" xlink:href="#p" />
<use x="0" y="0" xlink:href="#p" />
<use x="0" y="0" xlink:href="#p" />
<use x="0" y="0" xlink:href="#p" />
<use x="0" y="0" xlink:href="#p" />
<use x="0" y="0" xlink:href="#p" />
<use x="0" y="0" xlink:href="#p" />
<use x="0" y="0" xlink:href="#p" />
<use x="0" y="0" xlink:href="#p" />
<use x="0" y="0" xlink:href="#p" />
<use x="0" y="0" xlink:href="#p" />
<use x="0" y="0" xlink:href="#p" />
<use x="0" y="0" xlink:href="#p" />
<use x="0" y="0" xlink:href="#p" />
<use x="0" y="0" xlink:href="#p" />
<use x="0" y="0" xlink:href="#p" />
<use x="0" y="0" xlink:href="#p" />
<use x="0" y="0" xlink:href="#p" />
<use x="0" y="0" xlink:href="#p" />
<use x="0" y="0" xlink:href="#p" />
<use x="0" y="0" xlink:href="#p" />
<use x="0" y="0" xlink:href="#p" />
<use x="0" y="0" xlink:href="#p" />
<use x="0" y="0" xlink:href="#p" />
<use x="0" y="0" xlink:href="#p" />
<use x="0" y="0" xlink:href="#p" />
<use x="0" y="0" xlink:href="#p" />
<use x="0" y="0" xlink:href="#p" />
<use x="0" y="0" xlink:href="#p" />
<use x="0" y="0" xlink:href="#p" />
<use x="0" y="0" xlink:href="#p" />
<use x="0" y="0" xlink:href="#p" />
<use x="0" y="0" xlink:href="#p" />
<use x="0" y="0" xlink:href="#p" />
<use x="0" y="0" xlink:href="#p" />
<use x="0" y="0" xlink:href="#p" />
<use x="0" y="0" xlink:href="#p" />
<use x="0" y="0" xlink:href="#p" />
<use x="0" y="0" xlink:href="#p" />
<use x="0" y="0" xlink:href="#p" />
<use x="0" y="0" xlink:href="#p" />
<use x="0" y="0" xlink:href="#p" />
<use x="0" y="0" xlink:href="#p" />
<use x="0" y="0" xlink:href="#p" />
<use x="0" y="0" xlink:href="#p" />
<use x="0" y="0" xlink:href="#p" />
<use x="0" y="0" xlink:href="#p" />
<use x="0" y="0" xlink:href="#p" />
<use x="0" y="0" xlink:href="#p" />
<use x="0" y="0" xlink:href="#p" />
<use x="0" y="0" xlink:href="#p" />
<use x="0" y="0" xlink:href="#p" />
<use x="0" y="0" xlink:href="#p" />
<use x="0" y="0" xlink:href="#p" />
<use x="0" y="0" xlink:href="#p" />
<use x="0" y="0" xlink:href="#p" />
<use x="0" y="0" xlink:href="#p" />
<use x="0" y="0" xlink:href="#p" />
<use x="0" y="0" xlink:href="#p" />
<use x="0" y="0" xlink:href="#p" />
<use x="0" y="0" xlink:href="#p" />
<use x="0" y="0" xlink:href="#p" />
<use x="0" y="0" xlink:href="#p" />
<use x="0" y="0" xlink:href="#p" />
<use x="0" y="0" xlink:href="#p" />
<use x="0" y="0" xlink:href="#p" />
<use x="0" y="0" xlink:href="#p" />
<use x="0" y="0" xlink:href="#p" />
<use x="0" y="0" xlink:href="#p" />
<use x="0" y="0" xlink:href="#p" />
<use x="0" y="0" xlink:href="#p" />
<use x="0" y="0" xlink:href="#p" />
<use x="0" y="0" xlink:href="#p" />
<use x="0" y="0" xlink:href="#p" />
<use x="0" y="0" xlink:href="#p" />
<use x="0" y="0" xlink:href="#p" />
<use x="0" y="0" xlink:href="#p" />
<use x="0" y="0" xlink:href="#p" />
<use x="0" y="0" xlink:href="#p" />
<use x="0" y="0" xlink:href="#p" />
<use x="0" y="0" xlink:href="#p" />
<use x="0" y="0" xlink:href="#p" />
<use x="0" y="0" xlink:href="#p" />
<use x="0" y="0" xlink:href="#p" />
<use x="0" y="0" xlink:href="#p" />
<use x="0" y="0" xlink:href="#p" />
<use x="0" y="0" xlink:href="#p" />
<use x="0" y="0" xlink:href="#p" />
<use x="0" y="0" xlink:href="#p" />
<use x="0" y="0" xlink:href="#p" />
<use x="0" y="0" xlink:href="#p" />
<use x="0" y="0" xlink:href="#p" />
<use x="0" y="0" xlink:href="#p" />
<use x="0" y="0" xlink:href="#p" />
<use x="0" y="0" xlink:href="#p" />
<use x="0" y="0" xlink:href="#p" />
<use x="0" y="0" xlink:href="#p" />
<use x="0" y="0" xlink:href="#p" />
<use x="0" y="0" xlink:href="#p" />
<use x="0" y="0" xlink:href="#p" />
<use x="0" y="0" xlink:href="#p" />
<use x="0" y="0" xlink:href="#p" />
<use x="0" y="0" xlink:href="#p" />
<use x="0" y="0" xlink:href="#p" />
<use x="0" y="0" xlink:href="#p" />
<use x="0" y="0" xlink:href="#p" />
<use x="0" y="0" xlink:href="#p" />
<use x="0" y="0" xlink:href="#p" />
<use x="0" y="0" xlink:href="#p" />
<use x="0" y="0" xlink:href="#p" />
<use x="0" y="0" xlink:href="#p" />
<use x="0" y="0" xlink:href="#p" />
<use x="0" y="0" xlink:href="#p" />
<use x="0" y="0" xlink:href="#p" />
<use x="0" y="0" xlink:href="#p" />
<use x="0" y="0" xlink:href="#p" />
<use x="0" y="0" xlink:href="#p" />
<use x="0" y="0" xlink:href="#p" />
<use x="0" y="0" xlink:href="#p" />
<use x="0" y="0" xlink:href="#p" />
<use x="0" y="0" xlink:href="#p" />
<use x="0" y="0" xlink:href="#p" />
<use x="0" y="0" xlink:href="#p" />
<use x="0" y="0" xlink:href="#p" />
<use x="0" y="0" xlink:href="#p" />
<use x="0" y="0" xlink:href="#p" />
<use x="0" y="0" xlink:href="#p" />
<use x="0" y="0" xlink:href="#p" />
<use x="0" y="0" xlink:href="#p" />
<use x="0" y="0" xlink:href="#p" />
<use x="0" y="0" xlink:href="#p" />
<use x="0" y="0" xlink:href="#p" />
<use x="0" y="0" xlink:href="#p" />
<use x="0" y="0" xlink:href="#p" />
<use x="0" y="0" xlink:href="#p" />
<use x="0" y="0" xlink:href="#p" />
<use x="0" y="0" xlink:href="#p" />
<use x="0" y="0" xlink:href="#p" />
<use x="0" y="0" xlink:href="#p" />
<use x="0" y="0" xlink:href="#p" />
<use x="0" y="0" xlink:href="#p" />
<use x="0" y="0" xlink:href="#p" />
<use x="0" y="0" xlink:href="#p" />
<use x="0" y="0" xlink:href="#p" />
<use x="0" y="0" xlink:href="#p" />
<use x="0" y="0" xlink:href="#p" />
<use x="0" y="0" xlink:href="#p" />
<use x="0" y="0" xlink:href="#p" />
<use x="0" y="0" xlink:href="#p" />
<use x="0" y="0" xlink:href="#p" />
<use x="0" y="0" xlink:href="#p" />
<use x="0" y="0" xlink:href="#p" />
<use x="0" y="0" xlink:href="#p" />
<use x="0" y="0" xlink:href="#p" />
<use x="0" y="0" xlink:href="#p" />
<use x="0" y="0" xlink:href="#p" />
<use x="0" y="0" xlink:href="#p" />
<use x="0" y="0" xlink:href="#p" />
<use x="0" y="0" xlink:href="#p" />
<use x="0" y="0" xlink:href="#p" />
<use x="0" y="0" xlink:href="#p" />
<use x="0" y="0" xlink:href="#p" />
<use x="0" y="0" xlink:href="#p" />
<use x="0" y="0" xlink:href="#p" />
<use x="0" y="0" xlink:href="#p" />
<use x="0" y="0" xlink:href="#p" />
<use x="0" y="0" xlink:href="#p" />
<use x="0" y="0" xlink:href="#p" />
<use x="0" y="0" xlink:href="#p" />
<use x="0" y="0" xlink:href="#p" />
<use x="0" y="0" xlink:href="#p" />
<use x="0" y="0" xlink:href="#p" />
<use x="0" y="0" xlink:href="#p" />
<use x="0" y="0" xlink:href="#p" />
<use x="0" y="0" xlink:href="#p" />
<use x="0" y="0" xlink:href="#p" />
<use x="0" y="0" xlink:href="#p" />
<use x="0" y="0" xlink:href="#p" />
<use x="0" y="0" xlink:href="#p" />
<use x="0" y="0" xlink:href="#p" />
<use x="0" y="0" xlink:href="#p" />
<use x="0" y="0" xlink:href="#p" />
<use x="0" y="0" xlink:href="#p" />
<use x="0" y="0" xlink:href="#p" />
<use x="0" y="0" xlink:href="#p" />
<use x="0" y="0" xlink:href="#p" />
<use x="0" y="0" xlink:href="#p" />
<use x="0" y="0" xlink:href="#p" />
<use x="0" y="0" xlink:href="#p" />
<use x="0" y="0" xlink:href="#p" />
<use x="0" y="0" xlink:href="#p" />
<use x="0" y="0" xlink:href="#p" />
<use x="0" y="0" xlink:href="#p" />
<use x="0" y="0" xlink:href="#p" />
<use x="0" y="0" xlink:href="#p" />
<use x="0" y="0" xlink:href="#p" />
<use x="0" y="0" xlink:href="#p" />
<use x="0" y="0" xlink:href="#p" />
<use x="0" y="0" xlink:href="#p" />
<use x="0" y="0" xlink:href="#p" />
<use x="0" y="0" xlink:href="#p" />
<use x="0" y="0" xlink:href="#p" />
<use x="0" y="0" xlink:href="#p" />
<use x="0" y="0" xlink:href="#p" />
<use x="0" y="0" xlink:href="#p" />
<use x="0" y="0" xlink:href="#p" />
<use x="0" y="0" xlink:href="#p" />
<use x="0" y="0" xlink:href="#p" />
<use x="0" y="0" xlink:href="#p" />
<use x="0" y="0" xlink:href="#p" />
<use x="0" y="0" xlink:href="#p" />
<use x="0" y="0" xlink:href="#p" />
<use x="0" y="0" xlink:href="#p" />
<use x="0" y="0" xlink:href="#p" />
<use x="0" y="0" xlink:href="#p" />
<use x="0" y="0" xlink:href="#p" />
<use x="0" y="0" xlink:href="#p" />
<use x="0" y="0" xlink:href="#p" />
<use x="0" y="0" xlink:href="#p" />
<use x="0" y="0" xlink:href="#p" />
<use x="0" y="0" xlink:href="#p" />
<use x="0" y="0" xlink:href="#p" />
<use x="0" y="0" xlink:href="#p" />
<use x="0" y="0" xlink:href="#p" />
<use x="0" y="0" xlink:href="#p" />
<use x="0" y="0" xlink:href="#p" />
<use x="0" y="0" xlink:href="#p" />
<use x="0" y="0" xlink:href="#p" />
<use x="0" y="0" xlink:href="#p" />
<use x="0" y="0" xlink:href="#p" />
<use x="0" y="0" xlink:href="#p" />
<use x="0" y="0" xlink:href="#p" />
<use x="0" y="0" xlink:href="#p" />
<use x="0" y="0" xlink:href="#p" />
<use x="0" y="0" xlink:href="#p" />
<use x="0" y="0" xlink:href="#p" />
<use x="0" y="0" xlink:href="#p" />
<use x="0" y="0" xlink:href="#p" />
<use x="0" y="0" xlink:href="#p" />
<use x="0" y="0" xlink:href="#p" />
<use x="0" y="0" xlink:href="#p" />
<use x="0" y="0" xlink:href="#p" />
<use x="0" y="0" xlink:href="#p" />
<use x="0" y="0" xlink:href="#p" />
<use x="0" y="0" xlink:href="#p" />
<use x="0" y="0" xlink:href="#p" />
<use x="0" y="0" xlink:href="#p" />
<use x="0" y="0" xlink:href="#p" />
<use x="0" y="0" xlink:href="#p" />
<use x="0" y="0" xlink:href="#p" />
<use x="0" y="0" xlink:href="#p" />
<use x="0" y="0" xlink:href="#p" />
<use x="0" y="0" xlink:href="#p" />
<use x="0" y="0" xlink:href="#p" />
<use x="0" y="0" xlink:href="#p" />
<use x="0" y="0" xlink:href="#p" />
<use x="0" y="0" xlink:href="#p" />
<use x="0" y="0" xlink:href="#p" />
<use x="0" y="0" xlink:href="#p" />
<use x="0" y="0" xlink:href="#p" />
<use x="0" y="0" xlink:href="#p" />
<use x="0" y="0" xlink:href="#p" />
<use x="0" y="0" xlink:href="#p" />
<use x="0" y="0" xlink:href="#p" />
<use x="0" y="0" xlink:href="#p" />
<use x="0" y="0" xlink:href="#p" />
<use x="0" y="0" xlink:href="#p" />
<use x="0" y="0" xlink:href="#p" />
<use x="0" y="0" xlink:href="#p" />
<use x="0" y="0" xlink:href="#p" />
<use x="0" y="0" xlink:href="#p" />
<use x="0" y="0" xlink:href="#p" />
<use x="0" y="0" xlink:href="#p" />
<use x="0" y="0" xlink:href="#p" />
<use x="0" y="0" xlink:href="#p" />
<use x="0" y="0" xlink:href="#p" />
<use x="0" y="0" xlink:href="#p" />
<use x="0" y="0" xlink:href="#p" />
<use x="0" y="0" xlink:href="#p" />
<use x="0" y="0" xlink:href="#p" />
<use x="0" y="0" xlink:href="#p" />
<use x="0" y="0" xlink:href="#p" />
<use x="0" y="0" xlink:href="#p" />
<use x="0" y="0" xlink:href="#p" />
<use x="0" y="0" xlink:href="#p" />
<use x="0" y="0" xlink:href="#p" />
<use x="0" y="0" xlink:href="#p" />
<use x="0" y="0" xlink:href="#p" />
<use x="0" y="0" xlink:href="#p" />
<use x="0" y="0" xlink:href="#p" />
<use x="0" y="0" xlink:href="#p" />
<use x="0" y="0" xlink:href="#p" />
<use x="0" y="0" xlink:href="#p" />
<use x="0" y="0" xlink:href="#p" />
<use x="0" y="0" xlink:href="#p" />
<use x="0" y="0" xlink:href="#p" />
<use x="0" y="0" xlink:href="#p" />
<use x="0" y="0" xlink:href="#p" />
<use x="0" y="0" xlink:href="#p" />
<use x="0" y="0" xlink:href="#p" />
<use x="0" y="0" xlink:href="#p" />
<use x="0" y="0" xlink:href="#p" />
<use x="0" y="0" xlink:href="#p" />
<use x="0" y="0" xlink:href="#p" />
<use x="0" y="0" xlink:href="#p" />
<use x="0" y="0" xlink:href="#p" />
<use x="0" y="0" xlink:href="#p" />
<use x="0" y="0" xlink:href="#p" />
<use x="0" y="0" xlink:href="#p" />
<use x="0" y="0" xlink:href="#p" />
<use x="0" y="0" xlink:href="#p" />
<use x="0" y="0" xlink:href="#p" />
<use x="0" y="0" xlink:href="#p" />
<use x="0" y="0" xlink:href="#p" />
<use x="0" y="0" xlink:href="#p" />
<use x="0" y="0" xlink:href="#p" />
<use x="0" y="0" xlink:href="#p" />
<use x="0" y="0" xlink:href="#p" />
<use x="0" y="0" xlink:href="#p" />
<use x="0" y="0" xlink:href="#p" />
<use x="0" y="0" xlink:href="#p" />
<use x="0" y="0" xlink:href="#p" />
<use x="0" y="0" xlink:href="#p" />
<use x="0" y="0" xlink:href="#p" />
<use x="0" y="0" xlink:href="#p" />
<use x="0" y="0" xlink:href="#p" />
<use x="0" y="0" xlink:href="#p" />
<use x="0" y="0" xlink:href="#p" />
<use x="0" y="0" xlink:href="#p" />
<use x="0" y="0" xlink:href="#p" />
<use x="0" y="0" xlink:href="#p" />
<use x="0" y="0" xlink:href="#p" />
<use x="0" y="0" xlink:href="#p" />
<use x="0" y="0" xlink:href="#p" />
<use x="0" y="0" xlink:href="#p" />
<use x="0" y="0" xlink:href="#p" />
<use x="0" y="0" xlink:href="#p" />
<use x="0" y="0" xlink:href="#p" />
<use x="0" y="0" xlink:href="#p" />
<use x="0" y="0" xlink:href="#p" />
<use x="0" y="0" xlink:href="#p" />
<use x="0" y="0" xlink:href="#p" />
<use x="0" y="0" xlink:href="#p" />
<use x="0" y="0" xlink:href="#p" />
<use x="0" y="0" xlink:href="#p" />
<use x="0" y="0" xlink:href="#p" />
<use x="0" y="0" xlink:href="#p" />
<use x="0" y="0" xlink:href="#p" />
<use x="0" y="0" xlink:href="#p" />
<use x="0" y="0" xlink:href="#p" />
<use x="0" y="0" xlink:href="#p" />
<use x="0" y="0" xlink:href="#p" />
<use x="0" y="0" xlink:href="#p" />
<use x="0" y="0" xlink:href="#p" />
<use x="0" y="0" xlink:href="#p" />
<use x="0" y="0" xlink:href="#p" />
<use x="0" y="0" xlink:href="#p" />
<use x="0" y="0" xlink:href="#p" />
<use x="0" y="0" xlink:href="#p" />
<use x="0" y="0" xlink:href="#p" />
<use x="0" y="0" xlink:href="#p" />
<use x="0" y="0" xlink:href="#p" />
<use x="0" y="0" xlink:href="#p" />
<use x="0" y="0" xlink:href="#p" />
<use x="0" y="0" xlink:href="#p" />
<use x="0" y="0" xlink:href="#p" />
<use x="0" y="0" xlink:href="#p" />
<use x="0" y="0" xlink:href="#p" />
<use x="0" y="0" xlink:href="#p" />
<use x="0" y="0" xlink:href="#p" />
<use x="0" y="0" xlink:href="#p" />
<use x="0" y="0" xlink:href="#p" />
<use x="0" y="0" xlink:href="#p" />
<use x="0" y="0" xlink:href="#p" />
<use x="0" y="0" xlink:href="#p" />
<use x="0" y="0" xlink:href="#p" />
<use x="0" y="0" xlink:href="#p" />
<use x="0" y="0" xlink:href="#p" />
<use x="0" y="0" xlink:href="#p" />
<use x="0" y="0" xlink:href="#p" />
<use x="0" y="0" xlink:href="#p" />
<use x="0" y="0" xlink:href="#p" />
<use x="0" y="0" xlink:href="#p" />
<use x="0" y="0" xlink:href="#p" />
<use x="0" y="0" xlink:href="#p" />
</g>
</svg>